G04 #@! TF.GenerationSoftware,KiCad,Pcbnew,(6.0.6)*
G04 #@! TF.CreationDate,2022-07-28T14:40:53+01:00*
G04 #@! TF.ProjectId,adapter-board,61646170-7465-4722-9d62-6f6172642e6b,rev?*
G04 #@! TF.SameCoordinates,Original*
G04 #@! TF.FileFunction,Legend,Bot*
G04 #@! TF.FilePolarity,Positive*
%FSLAX46Y46*%
G04 Gerber Fmt 4.6, Leading zero omitted, Abs format (unit mm)*
G04 Created by KiCad (PCBNEW (6.0.6)) date 2022-07-28 14:40:53*
%MOMM*%
%LPD*%
G01*
G04 APERTURE LIST*
G04 Aperture macros list*
%AMRoundRect*
0 Rectangle with rounded corners*
0 $1 Rounding radius*
0 $2 $3 $4 $5 $6 $7 $8 $9 X,Y pos of 4 corners*
0 Add a 4 corners polygon primitive as box body*
4,1,4,$2,$3,$4,$5,$6,$7,$8,$9,$2,$3,0*
0 Add four circle primitives for the rounded corners*
1,1,$1+$1,$2,$3*
1,1,$1+$1,$4,$5*
1,1,$1+$1,$6,$7*
1,1,$1+$1,$8,$9*
0 Add four rect primitives between the rounded corners*
20,1,$1+$1,$2,$3,$4,$5,0*
20,1,$1+$1,$4,$5,$6,$7,0*
20,1,$1+$1,$6,$7,$8,$9,0*
20,1,$1+$1,$8,$9,$2,$3,0*%
G04 Aperture macros list end*
%ADD10C,3.000000*%
%ADD11R,1.700000X1.700000*%
%ADD12O,1.700000X1.700000*%
%ADD13RoundRect,0.249999X1.550001X-0.790001X1.550001X0.790001X-1.550001X0.790001X-1.550001X-0.790001X0*%
%ADD14O,3.600000X2.080000*%
%ADD15RoundRect,0.249999X-1.550001X0.790001X-1.550001X-0.790001X1.550001X-0.790001X1.550001X0.790001X0*%
G04 APERTURE END LIST*
%LPC*%
D10*
X120000000Y-137000000D03*
X150000000Y-137000000D03*
X136000000Y-66000000D03*
D11*
X138988800Y-123850400D03*
D12*
X138988800Y-121310400D03*
X138988800Y-118770400D03*
X138988800Y-116230400D03*
D11*
X130810000Y-71120000D03*
D12*
X130810000Y-73660000D03*
X130810000Y-76200000D03*
X130810000Y-78740000D03*
D13*
X146812000Y-127660400D03*
D14*
X146812000Y-122580400D03*
X146812000Y-117500400D03*
X146812000Y-112420400D03*
X146812000Y-107340400D03*
X146812000Y-102260400D03*
D11*
X130697200Y-106680000D03*
D12*
X130697200Y-109220000D03*
X130697200Y-111760000D03*
X130697200Y-114300000D03*
D11*
X139065000Y-88265000D03*
D12*
X139065000Y-85725000D03*
X139065000Y-83185000D03*
X139065000Y-80645000D03*
D15*
X123012200Y-102870000D03*
D14*
X123012200Y-107950000D03*
X123012200Y-113030000D03*
X123012200Y-118110000D03*
X123012200Y-123190000D03*
X123012200Y-128270000D03*
D13*
X146812000Y-92075000D03*
D14*
X146812000Y-86995000D03*
X146812000Y-81915000D03*
X146812000Y-76835000D03*
X146812000Y-71755000D03*
X146812000Y-66675000D03*
X123037600Y-92710000D03*
X123037600Y-87630000D03*
X123037600Y-82550000D03*
X123037600Y-77470000D03*
X123037600Y-72390000D03*
D15*
X123037600Y-67310000D03*
M02*
