%FSLAX45Y45*%
G04 Gerber Fmt 4.5, Leading zero omitted, Abs format (unit mm)*
G04 Created by KiCad (PCBNEW (6.0.6)) date 2022-07-28 14:44:12*
%MOMM*%
%LPD*%
G01*
G04 APERTURE LIST*
%TA.AperFunction,Profile*%
%ADD10C,0.100000*%
%TD*%
%ADD11C,0.200000*%
%ADD12C,0.100000*%
%ADD13C,0.140000*%
G04 APERTURE END LIST*
D10*
X11269980Y-6195060D02*
X15714980Y-6195060D01*
X15714980Y-6195060D02*
X15714980Y-14069060D01*
X15714980Y-14069060D02*
X11269980Y-14069060D01*
X11269980Y-14069060D02*
X11269980Y-6195060D01*
D11*
D12*
X13019720Y-10618000D02*
X13119720Y-10718000D01*
X13119720Y-10618000D02*
X13019720Y-10718000D01*
X13019720Y-10872000D02*
X13119720Y-10972000D01*
X13119720Y-10872000D02*
X13019720Y-10972000D01*
X13019720Y-11126000D02*
X13119720Y-11226000D01*
X13119720Y-11126000D02*
X13019720Y-11226000D01*
X13019720Y-11380000D02*
X13119720Y-11480000D01*
X13119720Y-11380000D02*
X13019720Y-11480000D01*
X13031000Y-7062000D02*
X13131000Y-7162000D01*
X13131000Y-7062000D02*
X13031000Y-7162000D01*
X13031000Y-7316000D02*
X13131000Y-7416000D01*
X13131000Y-7316000D02*
X13031000Y-7416000D01*
X13031000Y-7570000D02*
X13131000Y-7670000D01*
X13131000Y-7570000D02*
X13031000Y-7670000D01*
X13031000Y-7824000D02*
X13131000Y-7924000D01*
X13131000Y-7824000D02*
X13031000Y-7924000D01*
X13848880Y-11573040D02*
X13948880Y-11673040D01*
X13948880Y-11573040D02*
X13848880Y-11673040D01*
X13848880Y-11827040D02*
X13948880Y-11927040D01*
X13948880Y-11827040D02*
X13848880Y-11927040D01*
X13848880Y-12081040D02*
X13948880Y-12181040D01*
X13948880Y-12081040D02*
X13848880Y-12181040D01*
X13848880Y-12335040D02*
X13948880Y-12435040D01*
X13948880Y-12335040D02*
X13848880Y-12435040D01*
X13856500Y-8014500D02*
X13956500Y-8114500D01*
X13956500Y-8014500D02*
X13856500Y-8114500D01*
X13856500Y-8268500D02*
X13956500Y-8368500D01*
X13956500Y-8268500D02*
X13856500Y-8368500D01*
X13856500Y-8522500D02*
X13956500Y-8622500D01*
X13956500Y-8522500D02*
X13856500Y-8622500D01*
X13856500Y-8776500D02*
X13956500Y-8876500D01*
X13956500Y-8776500D02*
X13856500Y-8876500D01*
D13*
X12371220Y-10287000D02*
G75*
G03*
X12371220Y-10287000I-70000J0D01*
G01*
X12371220Y-10795000D02*
G75*
G03*
X12371220Y-10795000I-70000J0D01*
G01*
X12371220Y-11303000D02*
G75*
G03*
X12371220Y-11303000I-70000J0D01*
G01*
X12371220Y-11811000D02*
G75*
G03*
X12371220Y-11811000I-70000J0D01*
G01*
X12371220Y-12319000D02*
G75*
G03*
X12371220Y-12319000I-70000J0D01*
G01*
X12371220Y-12827000D02*
G75*
G03*
X12371220Y-12827000I-70000J0D01*
G01*
X12373760Y-6731000D02*
G75*
G03*
X12373760Y-6731000I-70000J0D01*
G01*
X12373760Y-7239000D02*
G75*
G03*
X12373760Y-7239000I-70000J0D01*
G01*
X12373760Y-7747000D02*
G75*
G03*
X12373760Y-7747000I-70000J0D01*
G01*
X12373760Y-8255000D02*
G75*
G03*
X12373760Y-8255000I-70000J0D01*
G01*
X12373760Y-8763000D02*
G75*
G03*
X12373760Y-8763000I-70000J0D01*
G01*
X12373760Y-9271000D02*
G75*
G03*
X12373760Y-9271000I-70000J0D01*
G01*
X14751200Y-6667500D02*
G75*
G03*
X14751200Y-6667500I-70000J0D01*
G01*
X14751200Y-7175500D02*
G75*
G03*
X14751200Y-7175500I-70000J0D01*
G01*
X14751200Y-7683500D02*
G75*
G03*
X14751200Y-7683500I-70000J0D01*
G01*
X14751200Y-8191500D02*
G75*
G03*
X14751200Y-8191500I-70000J0D01*
G01*
X14751200Y-8699500D02*
G75*
G03*
X14751200Y-8699500I-70000J0D01*
G01*
X14751200Y-9207500D02*
G75*
G03*
X14751200Y-9207500I-70000J0D01*
G01*
X14751200Y-10226040D02*
G75*
G03*
X14751200Y-10226040I-70000J0D01*
G01*
X14751200Y-10734040D02*
G75*
G03*
X14751200Y-10734040I-70000J0D01*
G01*
X14751200Y-11242040D02*
G75*
G03*
X14751200Y-11242040I-70000J0D01*
G01*
X14751200Y-11750040D02*
G75*
G03*
X14751200Y-11750040I-70000J0D01*
G01*
X14751200Y-12258040D02*
G75*
G03*
X14751200Y-12258040I-70000J0D01*
G01*
X14751200Y-12766040D02*
G75*
G03*
X14751200Y-12766040I-70000J0D01*
G01*
D11*
X11522599Y-14384536D02*
X11522599Y-14184536D01*
X11570218Y-14184536D01*
X11598789Y-14194060D01*
X11617837Y-14213108D01*
X11627361Y-14232155D01*
X11636885Y-14270250D01*
X11636885Y-14298822D01*
X11627361Y-14336917D01*
X11617837Y-14355965D01*
X11598789Y-14375012D01*
X11570218Y-14384536D01*
X11522599Y-14384536D01*
X11722599Y-14384536D02*
X11722599Y-14251203D01*
X11722599Y-14289298D02*
X11732123Y-14270250D01*
X11741647Y-14260727D01*
X11760694Y-14251203D01*
X11779742Y-14251203D01*
X11846408Y-14384536D02*
X11846408Y-14251203D01*
X11846408Y-14184536D02*
X11836885Y-14194060D01*
X11846408Y-14203584D01*
X11855932Y-14194060D01*
X11846408Y-14184536D01*
X11846408Y-14203584D01*
X11970218Y-14384536D02*
X11951170Y-14375012D01*
X11941647Y-14355965D01*
X11941647Y-14184536D01*
X12074980Y-14384536D02*
X12055932Y-14375012D01*
X12046408Y-14355965D01*
X12046408Y-14184536D01*
X12303551Y-14384536D02*
X12303551Y-14184536D01*
X12370218Y-14327393D01*
X12436885Y-14184536D01*
X12436885Y-14384536D01*
X12617837Y-14384536D02*
X12617837Y-14279774D01*
X12608313Y-14260727D01*
X12589266Y-14251203D01*
X12551170Y-14251203D01*
X12532123Y-14260727D01*
X12617837Y-14375012D02*
X12598789Y-14384536D01*
X12551170Y-14384536D01*
X12532123Y-14375012D01*
X12522599Y-14355965D01*
X12522599Y-14336917D01*
X12532123Y-14317869D01*
X12551170Y-14308346D01*
X12598789Y-14308346D01*
X12617837Y-14298822D01*
X12713075Y-14251203D02*
X12713075Y-14451203D01*
X12713075Y-14260727D02*
X12732123Y-14251203D01*
X12770218Y-14251203D01*
X12789266Y-14260727D01*
X12798789Y-14270250D01*
X12808313Y-14289298D01*
X12808313Y-14346441D01*
X12798789Y-14365488D01*
X12789266Y-14375012D01*
X12770218Y-14384536D01*
X12732123Y-14384536D01*
X12713075Y-14375012D01*
X12894028Y-14365488D02*
X12903551Y-14375012D01*
X12894028Y-14384536D01*
X12884504Y-14375012D01*
X12894028Y-14365488D01*
X12894028Y-14384536D01*
X12894028Y-14260727D02*
X12903551Y-14270250D01*
X12894028Y-14279774D01*
X12884504Y-14270250D01*
X12894028Y-14260727D01*
X12894028Y-14279774D01*
D12*
X11164980Y-14664060D02*
X11264980Y-14764060D01*
X11264980Y-14664060D02*
X11164980Y-14764060D01*
D11*
X11627361Y-14804536D02*
X11513075Y-14804536D01*
X11570218Y-14804536D02*
X11570218Y-14604536D01*
X11551170Y-14633108D01*
X11532123Y-14652155D01*
X11513075Y-14661679D01*
X11713075Y-14785488D02*
X11722599Y-14795012D01*
X11713075Y-14804536D01*
X11703551Y-14795012D01*
X11713075Y-14785488D01*
X11713075Y-14804536D01*
X11846408Y-14604536D02*
X11865456Y-14604536D01*
X11884504Y-14614060D01*
X11894028Y-14623584D01*
X11903551Y-14642631D01*
X11913075Y-14680727D01*
X11913075Y-14728346D01*
X11903551Y-14766441D01*
X11894028Y-14785488D01*
X11884504Y-14795012D01*
X11865456Y-14804536D01*
X11846408Y-14804536D01*
X11827361Y-14795012D01*
X11817837Y-14785488D01*
X11808313Y-14766441D01*
X11798789Y-14728346D01*
X11798789Y-14680727D01*
X11808313Y-14642631D01*
X11817837Y-14623584D01*
X11827361Y-14614060D01*
X11846408Y-14604536D01*
X12036885Y-14604536D02*
X12055932Y-14604536D01*
X12074980Y-14614060D01*
X12084504Y-14623584D01*
X12094028Y-14642631D01*
X12103551Y-14680727D01*
X12103551Y-14728346D01*
X12094028Y-14766441D01*
X12084504Y-14785488D01*
X12074980Y-14795012D01*
X12055932Y-14804536D01*
X12036885Y-14804536D01*
X12017837Y-14795012D01*
X12008313Y-14785488D01*
X11998789Y-14766441D01*
X11989266Y-14728346D01*
X11989266Y-14680727D01*
X11998789Y-14642631D01*
X12008313Y-14623584D01*
X12017837Y-14614060D01*
X12036885Y-14604536D01*
X12227361Y-14604536D02*
X12246408Y-14604536D01*
X12265456Y-14614060D01*
X12274980Y-14623584D01*
X12284504Y-14642631D01*
X12294028Y-14680727D01*
X12294028Y-14728346D01*
X12284504Y-14766441D01*
X12274980Y-14785488D01*
X12265456Y-14795012D01*
X12246408Y-14804536D01*
X12227361Y-14804536D01*
X12208313Y-14795012D01*
X12198789Y-14785488D01*
X12189266Y-14766441D01*
X12179742Y-14728346D01*
X12179742Y-14680727D01*
X12189266Y-14642631D01*
X12198789Y-14623584D01*
X12208313Y-14614060D01*
X12227361Y-14604536D01*
X12379742Y-14804536D02*
X12379742Y-14671203D01*
X12379742Y-14690250D02*
X12389266Y-14680727D01*
X12408313Y-14671203D01*
X12436885Y-14671203D01*
X12455932Y-14680727D01*
X12465456Y-14699774D01*
X12465456Y-14804536D01*
X12465456Y-14699774D02*
X12474980Y-14680727D01*
X12494028Y-14671203D01*
X12522599Y-14671203D01*
X12541647Y-14680727D01*
X12551170Y-14699774D01*
X12551170Y-14804536D01*
X12646408Y-14804536D02*
X12646408Y-14671203D01*
X12646408Y-14690250D02*
X12655932Y-14680727D01*
X12674980Y-14671203D01*
X12703551Y-14671203D01*
X12722599Y-14680727D01*
X12732123Y-14699774D01*
X12732123Y-14804536D01*
X12732123Y-14699774D02*
X12741647Y-14680727D01*
X12760694Y-14671203D01*
X12789266Y-14671203D01*
X12808313Y-14680727D01*
X12817837Y-14699774D01*
X12817837Y-14804536D01*
X13208313Y-14595012D02*
X13036885Y-14852155D01*
X13465456Y-14604536D02*
X13484504Y-14604536D01*
X13503551Y-14614060D01*
X13513075Y-14623584D01*
X13522599Y-14642631D01*
X13532123Y-14680727D01*
X13532123Y-14728346D01*
X13522599Y-14766441D01*
X13513075Y-14785488D01*
X13503551Y-14795012D01*
X13484504Y-14804536D01*
X13465456Y-14804536D01*
X13446408Y-14795012D01*
X13436885Y-14785488D01*
X13427361Y-14766441D01*
X13417837Y-14728346D01*
X13417837Y-14680727D01*
X13427361Y-14642631D01*
X13436885Y-14623584D01*
X13446408Y-14614060D01*
X13465456Y-14604536D01*
X13617837Y-14785488D02*
X13627361Y-14795012D01*
X13617837Y-14804536D01*
X13608313Y-14795012D01*
X13617837Y-14785488D01*
X13617837Y-14804536D01*
X13751170Y-14604536D02*
X13770218Y-14604536D01*
X13789266Y-14614060D01*
X13798789Y-14623584D01*
X13808313Y-14642631D01*
X13817837Y-14680727D01*
X13817837Y-14728346D01*
X13808313Y-14766441D01*
X13798789Y-14785488D01*
X13789266Y-14795012D01*
X13770218Y-14804536D01*
X13751170Y-14804536D01*
X13732123Y-14795012D01*
X13722599Y-14785488D01*
X13713075Y-14766441D01*
X13703551Y-14728346D01*
X13703551Y-14680727D01*
X13713075Y-14642631D01*
X13722599Y-14623584D01*
X13732123Y-14614060D01*
X13751170Y-14604536D01*
X13884504Y-14604536D02*
X14008313Y-14604536D01*
X13941647Y-14680727D01*
X13970218Y-14680727D01*
X13989266Y-14690250D01*
X13998789Y-14699774D01*
X14008313Y-14718822D01*
X14008313Y-14766441D01*
X13998789Y-14785488D01*
X13989266Y-14795012D01*
X13970218Y-14804536D01*
X13913075Y-14804536D01*
X13894028Y-14795012D01*
X13884504Y-14785488D01*
X14103551Y-14804536D02*
X14141647Y-14804536D01*
X14160694Y-14795012D01*
X14170218Y-14785488D01*
X14189266Y-14756917D01*
X14198789Y-14718822D01*
X14198789Y-14642631D01*
X14189266Y-14623584D01*
X14179742Y-14614060D01*
X14160694Y-14604536D01*
X14122599Y-14604536D01*
X14103551Y-14614060D01*
X14094028Y-14623584D01*
X14084504Y-14642631D01*
X14084504Y-14690250D01*
X14094028Y-14709298D01*
X14103551Y-14718822D01*
X14122599Y-14728346D01*
X14160694Y-14728346D01*
X14179742Y-14718822D01*
X14189266Y-14709298D01*
X14198789Y-14690250D01*
X14370218Y-14671203D02*
X14370218Y-14804536D01*
X14322599Y-14595012D02*
X14274980Y-14737869D01*
X14398789Y-14737869D01*
X14465456Y-14604536D02*
X14465456Y-14642631D01*
X14541647Y-14604536D02*
X14541647Y-14642631D01*
X14836885Y-14880727D02*
X14827361Y-14871203D01*
X14808313Y-14842631D01*
X14798789Y-14823584D01*
X14789266Y-14795012D01*
X14779742Y-14747393D01*
X14779742Y-14709298D01*
X14789266Y-14661679D01*
X14798789Y-14633108D01*
X14808313Y-14614060D01*
X14827361Y-14585488D01*
X14836885Y-14575965D01*
X15017837Y-14804536D02*
X14903551Y-14804536D01*
X14960694Y-14804536D02*
X14960694Y-14604536D01*
X14941647Y-14633108D01*
X14922599Y-14652155D01*
X14903551Y-14661679D01*
X15189266Y-14604536D02*
X15151170Y-14604536D01*
X15132123Y-14614060D01*
X15122599Y-14623584D01*
X15103551Y-14652155D01*
X15094028Y-14690250D01*
X15094028Y-14766441D01*
X15103551Y-14785488D01*
X15113075Y-14795012D01*
X15132123Y-14804536D01*
X15170218Y-14804536D01*
X15189266Y-14795012D01*
X15198789Y-14785488D01*
X15208313Y-14766441D01*
X15208313Y-14718822D01*
X15198789Y-14699774D01*
X15189266Y-14690250D01*
X15170218Y-14680727D01*
X15132123Y-14680727D01*
X15113075Y-14690250D01*
X15103551Y-14699774D01*
X15094028Y-14718822D01*
X15446408Y-14804536D02*
X15446408Y-14604536D01*
X15532123Y-14804536D02*
X15532123Y-14699774D01*
X15522599Y-14680727D01*
X15503551Y-14671203D01*
X15474980Y-14671203D01*
X15455932Y-14680727D01*
X15446408Y-14690250D01*
X15655932Y-14804536D02*
X15636885Y-14795012D01*
X15627361Y-14785488D01*
X15617837Y-14766441D01*
X15617837Y-14709298D01*
X15627361Y-14690250D01*
X15636885Y-14680727D01*
X15655932Y-14671203D01*
X15684504Y-14671203D01*
X15703551Y-14680727D01*
X15713075Y-14690250D01*
X15722599Y-14709298D01*
X15722599Y-14766441D01*
X15713075Y-14785488D01*
X15703551Y-14795012D01*
X15684504Y-14804536D01*
X15655932Y-14804536D01*
X15836885Y-14804536D02*
X15817837Y-14795012D01*
X15808313Y-14775965D01*
X15808313Y-14604536D01*
X15989266Y-14795012D02*
X15970218Y-14804536D01*
X15932123Y-14804536D01*
X15913075Y-14795012D01*
X15903551Y-14775965D01*
X15903551Y-14699774D01*
X15913075Y-14680727D01*
X15932123Y-14671203D01*
X15970218Y-14671203D01*
X15989266Y-14680727D01*
X15998789Y-14699774D01*
X15998789Y-14718822D01*
X15903551Y-14737869D01*
X16074980Y-14795012D02*
X16094028Y-14804536D01*
X16132123Y-14804536D01*
X16151170Y-14795012D01*
X16160694Y-14775965D01*
X16160694Y-14766441D01*
X16151170Y-14747393D01*
X16132123Y-14737869D01*
X16103551Y-14737869D01*
X16084504Y-14728346D01*
X16074980Y-14709298D01*
X16074980Y-14699774D01*
X16084504Y-14680727D01*
X16103551Y-14671203D01*
X16132123Y-14671203D01*
X16151170Y-14680727D01*
X16227361Y-14880727D02*
X16236885Y-14871203D01*
X16255932Y-14842631D01*
X16265456Y-14823584D01*
X16274980Y-14795012D01*
X16284504Y-14747393D01*
X16284504Y-14709298D01*
X16274980Y-14661679D01*
X16265456Y-14633108D01*
X16255932Y-14614060D01*
X16236885Y-14585488D01*
X16227361Y-14575965D01*
D13*
X11264980Y-14978060D02*
G75*
G03*
X11264980Y-14978060I-70000J0D01*
G01*
D11*
X11627361Y-15068536D02*
X11513075Y-15068536D01*
X11570218Y-15068536D02*
X11570218Y-14868536D01*
X11551170Y-14897108D01*
X11532123Y-14916155D01*
X11513075Y-14925679D01*
X11713075Y-15049488D02*
X11722599Y-15059012D01*
X11713075Y-15068536D01*
X11703551Y-15059012D01*
X11713075Y-15049488D01*
X11713075Y-15068536D01*
X11894028Y-14935203D02*
X11894028Y-15068536D01*
X11846408Y-14859012D02*
X11798789Y-15001869D01*
X11922599Y-15001869D01*
X12036885Y-14868536D02*
X12055932Y-14868536D01*
X12074980Y-14878060D01*
X12084504Y-14887584D01*
X12094028Y-14906631D01*
X12103551Y-14944727D01*
X12103551Y-14992346D01*
X12094028Y-15030441D01*
X12084504Y-15049488D01*
X12074980Y-15059012D01*
X12055932Y-15068536D01*
X12036885Y-15068536D01*
X12017837Y-15059012D01*
X12008313Y-15049488D01*
X11998789Y-15030441D01*
X11989266Y-14992346D01*
X11989266Y-14944727D01*
X11998789Y-14906631D01*
X12008313Y-14887584D01*
X12017837Y-14878060D01*
X12036885Y-14868536D01*
X12227361Y-14868536D02*
X12246408Y-14868536D01*
X12265456Y-14878060D01*
X12274980Y-14887584D01*
X12284504Y-14906631D01*
X12294028Y-14944727D01*
X12294028Y-14992346D01*
X12284504Y-15030441D01*
X12274980Y-15049488D01*
X12265456Y-15059012D01*
X12246408Y-15068536D01*
X12227361Y-15068536D01*
X12208313Y-15059012D01*
X12198789Y-15049488D01*
X12189266Y-15030441D01*
X12179742Y-14992346D01*
X12179742Y-14944727D01*
X12189266Y-14906631D01*
X12198789Y-14887584D01*
X12208313Y-14878060D01*
X12227361Y-14868536D01*
X12379742Y-15068536D02*
X12379742Y-14935203D01*
X12379742Y-14954250D02*
X12389266Y-14944727D01*
X12408313Y-14935203D01*
X12436885Y-14935203D01*
X12455932Y-14944727D01*
X12465456Y-14963774D01*
X12465456Y-15068536D01*
X12465456Y-14963774D02*
X12474980Y-14944727D01*
X12494028Y-14935203D01*
X12522599Y-14935203D01*
X12541647Y-14944727D01*
X12551170Y-14963774D01*
X12551170Y-15068536D01*
X12646408Y-15068536D02*
X12646408Y-14935203D01*
X12646408Y-14954250D02*
X12655932Y-14944727D01*
X12674980Y-14935203D01*
X12703551Y-14935203D01*
X12722599Y-14944727D01*
X12732123Y-14963774D01*
X12732123Y-15068536D01*
X12732123Y-14963774D02*
X12741647Y-14944727D01*
X12760694Y-14935203D01*
X12789266Y-14935203D01*
X12808313Y-14944727D01*
X12817837Y-14963774D01*
X12817837Y-15068536D01*
X13208313Y-14859012D02*
X13036885Y-15116155D01*
X13465456Y-14868536D02*
X13484504Y-14868536D01*
X13503551Y-14878060D01*
X13513075Y-14887584D01*
X13522599Y-14906631D01*
X13532123Y-14944727D01*
X13532123Y-14992346D01*
X13522599Y-15030441D01*
X13513075Y-15049488D01*
X13503551Y-15059012D01*
X13484504Y-15068536D01*
X13465456Y-15068536D01*
X13446408Y-15059012D01*
X13436885Y-15049488D01*
X13427361Y-15030441D01*
X13417837Y-14992346D01*
X13417837Y-14944727D01*
X13427361Y-14906631D01*
X13436885Y-14887584D01*
X13446408Y-14878060D01*
X13465456Y-14868536D01*
X13617837Y-15049488D02*
X13627361Y-15059012D01*
X13617837Y-15068536D01*
X13608313Y-15059012D01*
X13617837Y-15049488D01*
X13617837Y-15068536D01*
X13751170Y-14868536D02*
X13770218Y-14868536D01*
X13789266Y-14878060D01*
X13798789Y-14887584D01*
X13808313Y-14906631D01*
X13817837Y-14944727D01*
X13817837Y-14992346D01*
X13808313Y-15030441D01*
X13798789Y-15049488D01*
X13789266Y-15059012D01*
X13770218Y-15068536D01*
X13751170Y-15068536D01*
X13732123Y-15059012D01*
X13722599Y-15049488D01*
X13713075Y-15030441D01*
X13703551Y-14992346D01*
X13703551Y-14944727D01*
X13713075Y-14906631D01*
X13722599Y-14887584D01*
X13732123Y-14878060D01*
X13751170Y-14868536D01*
X13998789Y-14868536D02*
X13903551Y-14868536D01*
X13894028Y-14963774D01*
X13903551Y-14954250D01*
X13922599Y-14944727D01*
X13970218Y-14944727D01*
X13989266Y-14954250D01*
X13998789Y-14963774D01*
X14008313Y-14982822D01*
X14008313Y-15030441D01*
X13998789Y-15049488D01*
X13989266Y-15059012D01*
X13970218Y-15068536D01*
X13922599Y-15068536D01*
X13903551Y-15059012D01*
X13894028Y-15049488D01*
X14189266Y-14868536D02*
X14094028Y-14868536D01*
X14084504Y-14963774D01*
X14094028Y-14954250D01*
X14113075Y-14944727D01*
X14160694Y-14944727D01*
X14179742Y-14954250D01*
X14189266Y-14963774D01*
X14198789Y-14982822D01*
X14198789Y-15030441D01*
X14189266Y-15049488D01*
X14179742Y-15059012D01*
X14160694Y-15068536D01*
X14113075Y-15068536D01*
X14094028Y-15059012D01*
X14084504Y-15049488D01*
X14389266Y-15068536D02*
X14274980Y-15068536D01*
X14332123Y-15068536D02*
X14332123Y-14868536D01*
X14313075Y-14897108D01*
X14294028Y-14916155D01*
X14274980Y-14925679D01*
X14465456Y-14868536D02*
X14465456Y-14906631D01*
X14541647Y-14868536D02*
X14541647Y-14906631D01*
X14836885Y-15144727D02*
X14827361Y-15135203D01*
X14808313Y-15106631D01*
X14798789Y-15087584D01*
X14789266Y-15059012D01*
X14779742Y-15011393D01*
X14779742Y-14973298D01*
X14789266Y-14925679D01*
X14798789Y-14897108D01*
X14808313Y-14878060D01*
X14827361Y-14849488D01*
X14836885Y-14839965D01*
X14903551Y-14887584D02*
X14913075Y-14878060D01*
X14932123Y-14868536D01*
X14979742Y-14868536D01*
X14998789Y-14878060D01*
X15008313Y-14887584D01*
X15017837Y-14906631D01*
X15017837Y-14925679D01*
X15008313Y-14954250D01*
X14894028Y-15068536D01*
X15017837Y-15068536D01*
X15189266Y-14935203D02*
X15189266Y-15068536D01*
X15141647Y-14859012D02*
X15094028Y-15001869D01*
X15217837Y-15001869D01*
X15446408Y-15068536D02*
X15446408Y-14868536D01*
X15532123Y-15068536D02*
X15532123Y-14963774D01*
X15522599Y-14944727D01*
X15503551Y-14935203D01*
X15474980Y-14935203D01*
X15455932Y-14944727D01*
X15446408Y-14954250D01*
X15655932Y-15068536D02*
X15636885Y-15059012D01*
X15627361Y-15049488D01*
X15617837Y-15030441D01*
X15617837Y-14973298D01*
X15627361Y-14954250D01*
X15636885Y-14944727D01*
X15655932Y-14935203D01*
X15684504Y-14935203D01*
X15703551Y-14944727D01*
X15713075Y-14954250D01*
X15722599Y-14973298D01*
X15722599Y-15030441D01*
X15713075Y-15049488D01*
X15703551Y-15059012D01*
X15684504Y-15068536D01*
X15655932Y-15068536D01*
X15836885Y-15068536D02*
X15817837Y-15059012D01*
X15808313Y-15039965D01*
X15808313Y-14868536D01*
X15989266Y-15059012D02*
X15970218Y-15068536D01*
X15932123Y-15068536D01*
X15913075Y-15059012D01*
X15903551Y-15039965D01*
X15903551Y-14963774D01*
X15913075Y-14944727D01*
X15932123Y-14935203D01*
X15970218Y-14935203D01*
X15989266Y-14944727D01*
X15998789Y-14963774D01*
X15998789Y-14982822D01*
X15903551Y-15001869D01*
X16074980Y-15059012D02*
X16094028Y-15068536D01*
X16132123Y-15068536D01*
X16151170Y-15059012D01*
X16160694Y-15039965D01*
X16160694Y-15030441D01*
X16151170Y-15011393D01*
X16132123Y-15001869D01*
X16103551Y-15001869D01*
X16084504Y-14992346D01*
X16074980Y-14973298D01*
X16074980Y-14963774D01*
X16084504Y-14944727D01*
X16103551Y-14935203D01*
X16132123Y-14935203D01*
X16151170Y-14944727D01*
X16227361Y-15144727D02*
X16236885Y-15135203D01*
X16255932Y-15106631D01*
X16265456Y-15087584D01*
X16274980Y-15059012D01*
X16284504Y-15011393D01*
X16284504Y-14973298D01*
X16274980Y-14925679D01*
X16265456Y-14897108D01*
X16255932Y-14878060D01*
X16236885Y-14849488D01*
X16227361Y-14839965D01*
M02*
