G04 #@! TF.GenerationSoftware,KiCad,Pcbnew,(6.0.6)*
G04 #@! TF.CreationDate,2022-07-28T14:40:53+01:00*
G04 #@! TF.ProjectId,adapter-board,61646170-7465-4722-9d62-6f6172642e6b,rev?*
G04 #@! TF.SameCoordinates,Original*
G04 #@! TF.FileFunction,Legend,Top*
G04 #@! TF.FilePolarity,Positive*
%FSLAX46Y46*%
G04 Gerber Fmt 4.6, Leading zero omitted, Abs format (unit mm)*
G04 Created by KiCad (PCBNEW (6.0.6)) date 2022-07-28 14:40:53*
%MOMM*%
%LPD*%
G01*
G04 APERTURE LIST*
G04 Aperture macros list*
%AMRoundRect*
0 Rectangle with rounded corners*
0 $1 Rounding radius*
0 $2 $3 $4 $5 $6 $7 $8 $9 X,Y pos of 4 corners*
0 Add a 4 corners polygon primitive as box body*
4,1,4,$2,$3,$4,$5,$6,$7,$8,$9,$2,$3,0*
0 Add four circle primitives for the rounded corners*
1,1,$1+$1,$2,$3*
1,1,$1+$1,$4,$5*
1,1,$1+$1,$6,$7*
1,1,$1+$1,$8,$9*
0 Add four rect primitives between the rounded corners*
20,1,$1+$1,$2,$3,$4,$5,0*
20,1,$1+$1,$4,$5,$6,$7,0*
20,1,$1+$1,$6,$7,$8,$9,0*
20,1,$1+$1,$8,$9,$2,$3,0*%
G04 Aperture macros list end*
%ADD10C,0.150000*%
%ADD11C,0.120000*%
%ADD12C,3.000000*%
%ADD13R,1.700000X1.700000*%
%ADD14O,1.700000X1.700000*%
%ADD15RoundRect,0.249999X1.550001X-0.790001X1.550001X0.790001X-1.550001X0.790001X-1.550001X-0.790001X0*%
%ADD16O,3.600000X2.080000*%
%ADD17RoundRect,0.249999X-1.550001X0.790001X-1.550001X-0.790001X1.550001X-0.790001X1.550001X0.790001X0*%
G04 APERTURE END LIST*
D10*
X138655466Y-127122780D02*
X138655466Y-127837066D01*
X138607847Y-127979923D01*
X138512609Y-128075161D01*
X138369752Y-128122780D01*
X138274514Y-128122780D01*
X139560228Y-127122780D02*
X139369752Y-127122780D01*
X139274514Y-127170400D01*
X139226895Y-127218019D01*
X139131657Y-127360876D01*
X139084038Y-127551352D01*
X139084038Y-127932304D01*
X139131657Y-128027542D01*
X139179276Y-128075161D01*
X139274514Y-128122780D01*
X139464990Y-128122780D01*
X139560228Y-128075161D01*
X139607847Y-128027542D01*
X139655466Y-127932304D01*
X139655466Y-127694209D01*
X139607847Y-127598971D01*
X139560228Y-127551352D01*
X139464990Y-127503733D01*
X139274514Y-127503733D01*
X139179276Y-127551352D01*
X139131657Y-127598971D01*
X139084038Y-127694209D01*
X130476666Y-66762380D02*
X130476666Y-67476666D01*
X130429047Y-67619523D01*
X130333809Y-67714761D01*
X130190952Y-67762380D01*
X130095714Y-67762380D01*
X130905238Y-66857619D02*
X130952857Y-66810000D01*
X131048095Y-66762380D01*
X131286190Y-66762380D01*
X131381428Y-66810000D01*
X131429047Y-66857619D01*
X131476666Y-66952857D01*
X131476666Y-67048095D01*
X131429047Y-67190952D01*
X130857619Y-67762380D01*
X131476666Y-67762380D01*
X140549380Y-101323733D02*
X141263666Y-101323733D01*
X141406523Y-101371352D01*
X141501761Y-101466590D01*
X141549380Y-101609447D01*
X141549380Y-101704685D01*
X140549380Y-100371352D02*
X140549380Y-100847542D01*
X141025571Y-100895161D01*
X140977952Y-100847542D01*
X140930333Y-100752304D01*
X140930333Y-100514209D01*
X140977952Y-100418971D01*
X141025571Y-100371352D01*
X141120809Y-100323733D01*
X141358904Y-100323733D01*
X141454142Y-100371352D01*
X141501761Y-100418971D01*
X141549380Y-100514209D01*
X141549380Y-100752304D01*
X141501761Y-100847542D01*
X141454142Y-100895161D01*
X130363866Y-117552380D02*
X130363866Y-118266666D01*
X130316247Y-118409523D01*
X130221009Y-118504761D01*
X130078152Y-118552380D01*
X129982914Y-118552380D01*
X131268628Y-117885714D02*
X131268628Y-118552380D01*
X131030533Y-117504761D02*
X130792438Y-118219047D01*
X131411485Y-118219047D01*
X138731666Y-76297380D02*
X138731666Y-77011666D01*
X138684047Y-77154523D01*
X138588809Y-77249761D01*
X138445952Y-77297380D01*
X138350714Y-77297380D01*
X139350714Y-76725952D02*
X139255476Y-76678333D01*
X139207857Y-76630714D01*
X139160238Y-76535476D01*
X139160238Y-76487857D01*
X139207857Y-76392619D01*
X139255476Y-76345000D01*
X139350714Y-76297380D01*
X139541190Y-76297380D01*
X139636428Y-76345000D01*
X139684047Y-76392619D01*
X139731666Y-76487857D01*
X139731666Y-76535476D01*
X139684047Y-76630714D01*
X139636428Y-76678333D01*
X139541190Y-76725952D01*
X139350714Y-76725952D01*
X139255476Y-76773571D01*
X139207857Y-76821190D01*
X139160238Y-76916428D01*
X139160238Y-77106904D01*
X139207857Y-77202142D01*
X139255476Y-77249761D01*
X139350714Y-77297380D01*
X139541190Y-77297380D01*
X139636428Y-77249761D01*
X139684047Y-77202142D01*
X139731666Y-77106904D01*
X139731666Y-76916428D01*
X139684047Y-76821190D01*
X139636428Y-76773571D01*
X139541190Y-76725952D01*
X128244580Y-128603333D02*
X128958866Y-128603333D01*
X129101723Y-128650952D01*
X129196961Y-128746190D01*
X129244580Y-128889047D01*
X129244580Y-128984285D01*
X128244580Y-128222380D02*
X128244580Y-127603333D01*
X128625533Y-127936666D01*
X128625533Y-127793809D01*
X128673152Y-127698571D01*
X128720771Y-127650952D01*
X128816009Y-127603333D01*
X129054104Y-127603333D01*
X129149342Y-127650952D01*
X129196961Y-127698571D01*
X129244580Y-127793809D01*
X129244580Y-128079523D01*
X129196961Y-128174761D01*
X129149342Y-128222380D01*
X140549380Y-67008333D02*
X141263666Y-67008333D01*
X141406523Y-67055952D01*
X141501761Y-67151190D01*
X141549380Y-67294047D01*
X141549380Y-67389285D01*
X140549380Y-66627380D02*
X140549380Y-65960714D01*
X141549380Y-66389285D01*
X128269980Y-93678333D02*
X128984266Y-93678333D01*
X129127123Y-93725952D01*
X129222361Y-93821190D01*
X129269980Y-93964047D01*
X129269980Y-94059285D01*
X129269980Y-92678333D02*
X129269980Y-93249761D01*
X129269980Y-92964047D02*
X128269980Y-92964047D01*
X128412838Y-93059285D01*
X128508076Y-93154523D01*
X128555695Y-93249761D01*
D11*
X140318800Y-122580400D02*
X137658800Y-122580400D01*
X140318800Y-114900400D02*
X137658800Y-114900400D01*
X140318800Y-125180400D02*
X138988800Y-125180400D01*
X140318800Y-123850400D02*
X140318800Y-125180400D01*
X140318800Y-122580400D02*
X140318800Y-114900400D01*
X137658800Y-122580400D02*
X137658800Y-114900400D01*
X129480000Y-80070000D02*
X132140000Y-80070000D01*
X129480000Y-72390000D02*
X132140000Y-72390000D01*
X129480000Y-72390000D02*
X129480000Y-80070000D01*
X132140000Y-72390000D02*
X132140000Y-80070000D01*
X129480000Y-71120000D02*
X129480000Y-69790000D01*
X129480000Y-69790000D02*
X130810000Y-69790000D01*
X155422000Y-123330400D02*
X156922000Y-123580400D01*
X156922000Y-123580400D02*
X156922000Y-121580400D01*
X156922000Y-128660400D02*
X156922000Y-126660400D01*
X155422000Y-113170400D02*
X156922000Y-113420400D01*
X155422000Y-108090400D02*
X156922000Y-108340400D01*
X156922000Y-116500400D02*
X155422000Y-116750400D01*
X155422000Y-126910400D02*
X155422000Y-128410400D01*
X156922000Y-106340400D02*
X155422000Y-106590400D01*
X155422000Y-131310400D02*
X153622000Y-131310400D01*
X143902000Y-127960400D02*
X143902000Y-127360400D01*
X144702000Y-131310400D02*
X156922000Y-131310400D01*
X155422000Y-118250400D02*
X156922000Y-118500400D01*
X156922000Y-121580400D02*
X155422000Y-121830400D01*
X156922000Y-118500400D02*
X156922000Y-116500400D01*
X156922000Y-126660400D02*
X155422000Y-126910400D01*
X155422000Y-106590400D02*
X155422000Y-108090400D01*
X155422000Y-128410400D02*
X156922000Y-128660400D01*
X156922000Y-131310400D02*
X156922000Y-98610400D01*
X155422000Y-101510400D02*
X155422000Y-103010400D01*
X155422000Y-111670400D02*
X155422000Y-113170400D01*
X156922000Y-108340400D02*
X156922000Y-106340400D01*
X156922000Y-111420400D02*
X155422000Y-111670400D01*
X155422000Y-98610400D02*
X155422000Y-131310400D01*
X156922000Y-101260400D02*
X155422000Y-101510400D01*
X143902000Y-127360400D02*
X144502000Y-127660400D01*
X153622000Y-131310400D02*
X153622000Y-98610400D01*
X155422000Y-116750400D02*
X155422000Y-118250400D01*
X153622000Y-98610400D02*
X155422000Y-98610400D01*
X156922000Y-113420400D02*
X156922000Y-111420400D01*
X144502000Y-127660400D02*
X143902000Y-127960400D01*
X144702000Y-98610400D02*
X144702000Y-131310400D01*
X156922000Y-98610400D02*
X144702000Y-98610400D01*
X156922000Y-103260400D02*
X156922000Y-101260400D01*
X155422000Y-121830400D02*
X155422000Y-123330400D01*
X155422000Y-103010400D02*
X156922000Y-103260400D01*
X132027200Y-107950000D02*
X132027200Y-115630000D01*
X129367200Y-107950000D02*
X129367200Y-115630000D01*
X129367200Y-105350000D02*
X130697200Y-105350000D01*
X129367200Y-107950000D02*
X132027200Y-107950000D01*
X129367200Y-115630000D02*
X132027200Y-115630000D01*
X129367200Y-106680000D02*
X129367200Y-105350000D01*
X140395000Y-86995000D02*
X137735000Y-86995000D01*
X137735000Y-86995000D02*
X137735000Y-79315000D01*
X140395000Y-89595000D02*
X139065000Y-89595000D01*
X140395000Y-79315000D02*
X137735000Y-79315000D01*
X140395000Y-88265000D02*
X140395000Y-89595000D01*
X140395000Y-86995000D02*
X140395000Y-79315000D01*
X114402200Y-131920000D02*
X114402200Y-99220000D01*
X112902200Y-119110000D02*
X114402200Y-118860000D01*
X112902200Y-127270000D02*
X112902200Y-129270000D01*
X125122200Y-131920000D02*
X125122200Y-99220000D01*
X112902200Y-112030000D02*
X112902200Y-114030000D01*
X112902200Y-122190000D02*
X112902200Y-124190000D01*
X112902200Y-124190000D02*
X114402200Y-123940000D01*
X125322200Y-102870000D02*
X125922200Y-102570000D01*
X114402200Y-129020000D02*
X114402200Y-127520000D01*
X112902200Y-106950000D02*
X112902200Y-108950000D01*
X112902200Y-101870000D02*
X112902200Y-103870000D01*
X114402200Y-118860000D02*
X114402200Y-117360000D01*
X112902200Y-108950000D02*
X114402200Y-108700000D01*
X114402200Y-102120000D02*
X112902200Y-101870000D01*
X125122200Y-99220000D02*
X112902200Y-99220000D01*
X114402200Y-117360000D02*
X112902200Y-117110000D01*
X114402200Y-99220000D02*
X116202200Y-99220000D01*
X112902200Y-129270000D02*
X114402200Y-129020000D01*
X114402200Y-127520000D02*
X112902200Y-127270000D01*
X112902200Y-103870000D02*
X114402200Y-103620000D01*
X114402200Y-123940000D02*
X114402200Y-122440000D01*
X116202200Y-99220000D02*
X116202200Y-131920000D01*
X114402200Y-108700000D02*
X114402200Y-107200000D01*
X114402200Y-112280000D02*
X112902200Y-112030000D01*
X112902200Y-117110000D02*
X112902200Y-119110000D01*
X114402200Y-107200000D02*
X112902200Y-106950000D01*
X125922200Y-102570000D02*
X125922200Y-103170000D01*
X114402200Y-103620000D02*
X114402200Y-102120000D01*
X112902200Y-99220000D02*
X112902200Y-131920000D01*
X112902200Y-131920000D02*
X125122200Y-131920000D01*
X114402200Y-122440000D02*
X112902200Y-122190000D01*
X116202200Y-131920000D02*
X114402200Y-131920000D01*
X125922200Y-103170000D02*
X125322200Y-102870000D01*
X112902200Y-114030000D02*
X114402200Y-113780000D01*
X114402200Y-113780000D02*
X114402200Y-112280000D01*
X156922000Y-93075000D02*
X156922000Y-91075000D01*
X156922000Y-80915000D02*
X155422000Y-81165000D01*
X156922000Y-82915000D02*
X156922000Y-80915000D01*
X153622000Y-63025000D02*
X155422000Y-63025000D01*
X155422000Y-63025000D02*
X155422000Y-95725000D01*
X155422000Y-92825000D02*
X156922000Y-93075000D01*
X156922000Y-67675000D02*
X156922000Y-65675000D01*
X155422000Y-87745000D02*
X156922000Y-87995000D01*
X153622000Y-95725000D02*
X153622000Y-63025000D01*
X144502000Y-92075000D02*
X143902000Y-92375000D01*
X155422000Y-91325000D02*
X155422000Y-92825000D01*
X155422000Y-67425000D02*
X156922000Y-67675000D01*
X156922000Y-70755000D02*
X155422000Y-71005000D01*
X155422000Y-71005000D02*
X155422000Y-72505000D01*
X156922000Y-63025000D02*
X144702000Y-63025000D01*
X156922000Y-72755000D02*
X156922000Y-70755000D01*
X155422000Y-82665000D02*
X156922000Y-82915000D01*
X155422000Y-77585000D02*
X156922000Y-77835000D01*
X155422000Y-72505000D02*
X156922000Y-72755000D01*
X144702000Y-63025000D02*
X144702000Y-95725000D01*
X155422000Y-95725000D02*
X153622000Y-95725000D01*
X156922000Y-95725000D02*
X156922000Y-63025000D01*
X155422000Y-76085000D02*
X155422000Y-77585000D01*
X144702000Y-95725000D02*
X156922000Y-95725000D01*
X143902000Y-91775000D02*
X144502000Y-92075000D01*
X155422000Y-86245000D02*
X155422000Y-87745000D01*
X156922000Y-77835000D02*
X156922000Y-75835000D01*
X156922000Y-87995000D02*
X156922000Y-85995000D01*
X155422000Y-81165000D02*
X155422000Y-82665000D01*
X156922000Y-75835000D02*
X155422000Y-76085000D01*
X156922000Y-65675000D02*
X155422000Y-65925000D01*
X156922000Y-85995000D02*
X155422000Y-86245000D01*
X155422000Y-65925000D02*
X155422000Y-67425000D01*
X156922000Y-91075000D02*
X155422000Y-91325000D01*
X143902000Y-92375000D02*
X143902000Y-91775000D01*
X114427600Y-91960000D02*
X112927600Y-91710000D01*
X112927600Y-76470000D02*
X112927600Y-78470000D01*
X114427600Y-93460000D02*
X114427600Y-91960000D01*
X112927600Y-91710000D02*
X112927600Y-93710000D01*
X112927600Y-88630000D02*
X114427600Y-88380000D01*
X114427600Y-78220000D02*
X114427600Y-76720000D01*
X116227600Y-63660000D02*
X116227600Y-96360000D01*
X114427600Y-71640000D02*
X112927600Y-71390000D01*
X114427600Y-68060000D02*
X114427600Y-66560000D01*
X116227600Y-96360000D02*
X114427600Y-96360000D01*
X114427600Y-81800000D02*
X112927600Y-81550000D01*
X112927600Y-96360000D02*
X125147600Y-96360000D01*
X112927600Y-93710000D02*
X114427600Y-93460000D01*
X112927600Y-83550000D02*
X114427600Y-83300000D01*
X125347600Y-67310000D02*
X125947600Y-67010000D01*
X112927600Y-71390000D02*
X112927600Y-73390000D01*
X112927600Y-86630000D02*
X112927600Y-88630000D01*
X114427600Y-63660000D02*
X116227600Y-63660000D01*
X112927600Y-81550000D02*
X112927600Y-83550000D01*
X112927600Y-68310000D02*
X114427600Y-68060000D01*
X114427600Y-66560000D02*
X112927600Y-66310000D01*
X112927600Y-63660000D02*
X112927600Y-96360000D01*
X114427600Y-88380000D02*
X114427600Y-86880000D01*
X125947600Y-67610000D02*
X125347600Y-67310000D01*
X112927600Y-78470000D02*
X114427600Y-78220000D01*
X125147600Y-63660000D02*
X112927600Y-63660000D01*
X125947600Y-67010000D02*
X125947600Y-67610000D01*
X125147600Y-96360000D02*
X125147600Y-63660000D01*
X112927600Y-66310000D02*
X112927600Y-68310000D01*
X114427600Y-86880000D02*
X112927600Y-86630000D01*
X114427600Y-76720000D02*
X112927600Y-76470000D01*
X114427600Y-73140000D02*
X114427600Y-71640000D01*
X112927600Y-73390000D02*
X114427600Y-73140000D01*
X114427600Y-83300000D02*
X114427600Y-81800000D01*
X114427600Y-96360000D02*
X114427600Y-63660000D01*
%LPC*%
D12*
X120000000Y-137000000D03*
X150000000Y-137000000D03*
X136000000Y-66000000D03*
D13*
X138988800Y-123850400D03*
D14*
X138988800Y-121310400D03*
X138988800Y-118770400D03*
X138988800Y-116230400D03*
D13*
X130810000Y-71120000D03*
D14*
X130810000Y-73660000D03*
X130810000Y-76200000D03*
X130810000Y-78740000D03*
D15*
X146812000Y-127660400D03*
D16*
X146812000Y-122580400D03*
X146812000Y-117500400D03*
X146812000Y-112420400D03*
X146812000Y-107340400D03*
X146812000Y-102260400D03*
D13*
X130697200Y-106680000D03*
D14*
X130697200Y-109220000D03*
X130697200Y-111760000D03*
X130697200Y-114300000D03*
D13*
X139065000Y-88265000D03*
D14*
X139065000Y-85725000D03*
X139065000Y-83185000D03*
X139065000Y-80645000D03*
D17*
X123012200Y-102870000D03*
D16*
X123012200Y-107950000D03*
X123012200Y-113030000D03*
X123012200Y-118110000D03*
X123012200Y-123190000D03*
X123012200Y-128270000D03*
D15*
X146812000Y-92075000D03*
D16*
X146812000Y-86995000D03*
X146812000Y-81915000D03*
X146812000Y-76835000D03*
X146812000Y-71755000D03*
X146812000Y-66675000D03*
X123037600Y-92710000D03*
X123037600Y-87630000D03*
X123037600Y-82550000D03*
X123037600Y-77470000D03*
X123037600Y-72390000D03*
D17*
X123037600Y-67310000D03*
M02*
