M48
; DRILL file {KiCad (6.0.6)} date Thu Jul 28 14:44:11 2022
; FORMAT={-:-/ absolute / metric / decimal}
; #@! TF.CreationDate,2022-07-28T14:44:11+01:00
; #@! TF.GenerationSoftware,Kicad,Pcbnew,(6.0.6)
; #@! TF.FileFunction,Plated,1,2,PTH
FMAT,2
METRIC
; #@! TA.AperFunction,Plated,PTH,ComponentDrill
T1C1.000
; #@! TA.AperFunction,Plated,PTH,ComponentDrill
T2C1.400
%
G90
G05
T1
X130.697Y-106.68
X130.697Y-109.22
X130.697Y-111.76
X130.697Y-114.3
X130.81Y-71.12
X130.81Y-73.66
X130.81Y-76.2
X130.81Y-78.74
X138.989Y-116.23
X138.989Y-118.77
X138.989Y-121.31
X138.989Y-123.85
X139.065Y-80.645
X139.065Y-83.185
X139.065Y-85.725
X139.065Y-88.265
T2
X123.012Y-102.87
X123.012Y-107.95
X123.012Y-113.03
X123.012Y-118.11
X123.012Y-123.19
X123.012Y-128.27
X123.038Y-67.31
X123.038Y-72.39
X123.038Y-77.47
X123.038Y-82.55
X123.038Y-87.63
X123.038Y-92.71
X146.812Y-66.675
X146.812Y-71.755
X146.812Y-76.835
X146.812Y-81.915
X146.812Y-86.995
X146.812Y-92.075
X146.812Y-102.26
X146.812Y-107.34
X146.812Y-112.42
X146.812Y-117.5
X146.812Y-122.58
X146.812Y-127.66
T0
M30
