%FSLAX45Y45*%
G04 Gerber Fmt 4.5, Leading zero omitted, Abs format (unit mm)*
G04 Created by KiCad (PCBNEW (6.0.6)) date 2022-07-28 14:44:12*
%MOMM*%
%LPD*%
G01*
G04 APERTURE LIST*
%TA.AperFunction,Profile*%
%ADD10C,0.100000*%
%TD*%
%ADD11C,0.200000*%
%ADD12C,0.300000*%
G04 APERTURE END LIST*
D10*
X11269980Y-6195060D02*
X15714980Y-6195060D01*
X15714980Y-6195060D02*
X15714980Y-14069060D01*
X15714980Y-14069060D02*
X11269980Y-14069060D01*
X11269980Y-14069060D02*
X11269980Y-6195060D01*
D11*
D12*
X11850000Y-13550000D02*
X12150000Y-13850000D01*
X12150000Y-13550000D02*
X11850000Y-13850000D01*
X13450000Y-6450000D02*
X13750000Y-6750000D01*
X13750000Y-6450000D02*
X13450000Y-6750000D01*
X14850000Y-13550000D02*
X15150000Y-13850000D01*
X15150000Y-13550000D02*
X14850000Y-13850000D01*
D11*
X11522599Y-14384536D02*
X11522599Y-14184536D01*
X11570218Y-14184536D01*
X11598789Y-14194060D01*
X11617837Y-14213108D01*
X11627361Y-14232155D01*
X11636885Y-14270250D01*
X11636885Y-14298822D01*
X11627361Y-14336917D01*
X11617837Y-14355965D01*
X11598789Y-14375012D01*
X11570218Y-14384536D01*
X11522599Y-14384536D01*
X11722599Y-14384536D02*
X11722599Y-14251203D01*
X11722599Y-14289298D02*
X11732123Y-14270250D01*
X11741647Y-14260727D01*
X11760694Y-14251203D01*
X11779742Y-14251203D01*
X11846408Y-14384536D02*
X11846408Y-14251203D01*
X11846408Y-14184536D02*
X11836885Y-14194060D01*
X11846408Y-14203584D01*
X11855932Y-14194060D01*
X11846408Y-14184536D01*
X11846408Y-14203584D01*
X11970218Y-14384536D02*
X11951170Y-14375012D01*
X11941647Y-14355965D01*
X11941647Y-14184536D01*
X12074980Y-14384536D02*
X12055932Y-14375012D01*
X12046408Y-14355965D01*
X12046408Y-14184536D01*
X12303551Y-14384536D02*
X12303551Y-14184536D01*
X12370218Y-14327393D01*
X12436885Y-14184536D01*
X12436885Y-14384536D01*
X12617837Y-14384536D02*
X12617837Y-14279774D01*
X12608313Y-14260727D01*
X12589266Y-14251203D01*
X12551170Y-14251203D01*
X12532123Y-14260727D01*
X12617837Y-14375012D02*
X12598789Y-14384536D01*
X12551170Y-14384536D01*
X12532123Y-14375012D01*
X12522599Y-14355965D01*
X12522599Y-14336917D01*
X12532123Y-14317869D01*
X12551170Y-14308346D01*
X12598789Y-14308346D01*
X12617837Y-14298822D01*
X12713075Y-14251203D02*
X12713075Y-14451203D01*
X12713075Y-14260727D02*
X12732123Y-14251203D01*
X12770218Y-14251203D01*
X12789266Y-14260727D01*
X12798789Y-14270250D01*
X12808313Y-14289298D01*
X12808313Y-14346441D01*
X12798789Y-14365488D01*
X12789266Y-14375012D01*
X12770218Y-14384536D01*
X12732123Y-14384536D01*
X12713075Y-14375012D01*
X12894028Y-14365488D02*
X12903551Y-14375012D01*
X12894028Y-14384536D01*
X12884504Y-14375012D01*
X12894028Y-14365488D01*
X12894028Y-14384536D01*
X12894028Y-14260727D02*
X12903551Y-14270250D01*
X12894028Y-14279774D01*
X12884504Y-14270250D01*
X12894028Y-14260727D01*
X12894028Y-14279774D01*
X11064980Y-14614060D02*
X11264980Y-14814060D01*
X11264980Y-14614060D02*
X11064980Y-14814060D01*
X11503551Y-14604536D02*
X11627361Y-14604536D01*
X11560694Y-14680727D01*
X11589266Y-14680727D01*
X11608313Y-14690250D01*
X11617837Y-14699774D01*
X11627361Y-14718822D01*
X11627361Y-14766441D01*
X11617837Y-14785488D01*
X11608313Y-14795012D01*
X11589266Y-14804536D01*
X11532123Y-14804536D01*
X11513075Y-14795012D01*
X11503551Y-14785488D01*
X11713075Y-14785488D02*
X11722599Y-14795012D01*
X11713075Y-14804536D01*
X11703551Y-14795012D01*
X11713075Y-14785488D01*
X11713075Y-14804536D01*
X11846408Y-14604536D02*
X11865456Y-14604536D01*
X11884504Y-14614060D01*
X11894028Y-14623584D01*
X11903551Y-14642631D01*
X11913075Y-14680727D01*
X11913075Y-14728346D01*
X11903551Y-14766441D01*
X11894028Y-14785488D01*
X11884504Y-14795012D01*
X11865456Y-14804536D01*
X11846408Y-14804536D01*
X11827361Y-14795012D01*
X11817837Y-14785488D01*
X11808313Y-14766441D01*
X11798789Y-14728346D01*
X11798789Y-14680727D01*
X11808313Y-14642631D01*
X11817837Y-14623584D01*
X11827361Y-14614060D01*
X11846408Y-14604536D01*
X12036885Y-14604536D02*
X12055932Y-14604536D01*
X12074980Y-14614060D01*
X12084504Y-14623584D01*
X12094028Y-14642631D01*
X12103551Y-14680727D01*
X12103551Y-14728346D01*
X12094028Y-14766441D01*
X12084504Y-14785488D01*
X12074980Y-14795012D01*
X12055932Y-14804536D01*
X12036885Y-14804536D01*
X12017837Y-14795012D01*
X12008313Y-14785488D01*
X11998789Y-14766441D01*
X11989266Y-14728346D01*
X11989266Y-14680727D01*
X11998789Y-14642631D01*
X12008313Y-14623584D01*
X12017837Y-14614060D01*
X12036885Y-14604536D01*
X12227361Y-14604536D02*
X12246408Y-14604536D01*
X12265456Y-14614060D01*
X12274980Y-14623584D01*
X12284504Y-14642631D01*
X12294028Y-14680727D01*
X12294028Y-14728346D01*
X12284504Y-14766441D01*
X12274980Y-14785488D01*
X12265456Y-14795012D01*
X12246408Y-14804536D01*
X12227361Y-14804536D01*
X12208313Y-14795012D01*
X12198789Y-14785488D01*
X12189266Y-14766441D01*
X12179742Y-14728346D01*
X12179742Y-14680727D01*
X12189266Y-14642631D01*
X12198789Y-14623584D01*
X12208313Y-14614060D01*
X12227361Y-14604536D01*
X12379742Y-14804536D02*
X12379742Y-14671203D01*
X12379742Y-14690250D02*
X12389266Y-14680727D01*
X12408313Y-14671203D01*
X12436885Y-14671203D01*
X12455932Y-14680727D01*
X12465456Y-14699774D01*
X12465456Y-14804536D01*
X12465456Y-14699774D02*
X12474980Y-14680727D01*
X12494028Y-14671203D01*
X12522599Y-14671203D01*
X12541647Y-14680727D01*
X12551170Y-14699774D01*
X12551170Y-14804536D01*
X12646408Y-14804536D02*
X12646408Y-14671203D01*
X12646408Y-14690250D02*
X12655932Y-14680727D01*
X12674980Y-14671203D01*
X12703551Y-14671203D01*
X12722599Y-14680727D01*
X12732123Y-14699774D01*
X12732123Y-14804536D01*
X12732123Y-14699774D02*
X12741647Y-14680727D01*
X12760694Y-14671203D01*
X12789266Y-14671203D01*
X12808313Y-14680727D01*
X12817837Y-14699774D01*
X12817837Y-14804536D01*
X13208313Y-14595012D02*
X13036885Y-14852155D01*
X13465456Y-14604536D02*
X13484504Y-14604536D01*
X13503551Y-14614060D01*
X13513075Y-14623584D01*
X13522599Y-14642631D01*
X13532123Y-14680727D01*
X13532123Y-14728346D01*
X13522599Y-14766441D01*
X13513075Y-14785488D01*
X13503551Y-14795012D01*
X13484504Y-14804536D01*
X13465456Y-14804536D01*
X13446408Y-14795012D01*
X13436885Y-14785488D01*
X13427361Y-14766441D01*
X13417837Y-14728346D01*
X13417837Y-14680727D01*
X13427361Y-14642631D01*
X13436885Y-14623584D01*
X13446408Y-14614060D01*
X13465456Y-14604536D01*
X13617837Y-14785488D02*
X13627361Y-14795012D01*
X13617837Y-14804536D01*
X13608313Y-14795012D01*
X13617837Y-14785488D01*
X13617837Y-14804536D01*
X13817837Y-14804536D02*
X13703551Y-14804536D01*
X13760694Y-14804536D02*
X13760694Y-14604536D01*
X13741647Y-14633108D01*
X13722599Y-14652155D01*
X13703551Y-14661679D01*
X14008313Y-14804536D02*
X13894028Y-14804536D01*
X13951170Y-14804536D02*
X13951170Y-14604536D01*
X13932123Y-14633108D01*
X13913075Y-14652155D01*
X13894028Y-14661679D01*
X14122599Y-14690250D02*
X14103551Y-14680727D01*
X14094028Y-14671203D01*
X14084504Y-14652155D01*
X14084504Y-14642631D01*
X14094028Y-14623584D01*
X14103551Y-14614060D01*
X14122599Y-14604536D01*
X14160694Y-14604536D01*
X14179742Y-14614060D01*
X14189266Y-14623584D01*
X14198789Y-14642631D01*
X14198789Y-14652155D01*
X14189266Y-14671203D01*
X14179742Y-14680727D01*
X14160694Y-14690250D01*
X14122599Y-14690250D01*
X14103551Y-14699774D01*
X14094028Y-14709298D01*
X14084504Y-14728346D01*
X14084504Y-14766441D01*
X14094028Y-14785488D01*
X14103551Y-14795012D01*
X14122599Y-14804536D01*
X14160694Y-14804536D01*
X14179742Y-14795012D01*
X14189266Y-14785488D01*
X14198789Y-14766441D01*
X14198789Y-14728346D01*
X14189266Y-14709298D01*
X14179742Y-14699774D01*
X14160694Y-14690250D01*
X14389266Y-14804536D02*
X14274980Y-14804536D01*
X14332123Y-14804536D02*
X14332123Y-14604536D01*
X14313075Y-14633108D01*
X14294028Y-14652155D01*
X14274980Y-14661679D01*
X14465456Y-14604536D02*
X14465456Y-14642631D01*
X14541647Y-14604536D02*
X14541647Y-14642631D01*
X14836885Y-14880727D02*
X14827361Y-14871203D01*
X14808313Y-14842631D01*
X14798789Y-14823584D01*
X14789266Y-14795012D01*
X14779742Y-14747393D01*
X14779742Y-14709298D01*
X14789266Y-14661679D01*
X14798789Y-14633108D01*
X14808313Y-14614060D01*
X14827361Y-14585488D01*
X14836885Y-14575965D01*
X14894028Y-14604536D02*
X15017837Y-14604536D01*
X14951170Y-14680727D01*
X14979742Y-14680727D01*
X14998789Y-14690250D01*
X15008313Y-14699774D01*
X15017837Y-14718822D01*
X15017837Y-14766441D01*
X15008313Y-14785488D01*
X14998789Y-14795012D01*
X14979742Y-14804536D01*
X14922599Y-14804536D01*
X14903551Y-14795012D01*
X14894028Y-14785488D01*
X15255932Y-14804536D02*
X15255932Y-14604536D01*
X15341647Y-14804536D02*
X15341647Y-14699774D01*
X15332123Y-14680727D01*
X15313075Y-14671203D01*
X15284504Y-14671203D01*
X15265456Y-14680727D01*
X15255932Y-14690250D01*
X15465456Y-14804536D02*
X15446408Y-14795012D01*
X15436885Y-14785488D01*
X15427361Y-14766441D01*
X15427361Y-14709298D01*
X15436885Y-14690250D01*
X15446408Y-14680727D01*
X15465456Y-14671203D01*
X15494028Y-14671203D01*
X15513075Y-14680727D01*
X15522599Y-14690250D01*
X15532123Y-14709298D01*
X15532123Y-14766441D01*
X15522599Y-14785488D01*
X15513075Y-14795012D01*
X15494028Y-14804536D01*
X15465456Y-14804536D01*
X15646408Y-14804536D02*
X15627361Y-14795012D01*
X15617837Y-14775965D01*
X15617837Y-14604536D01*
X15798789Y-14795012D02*
X15779742Y-14804536D01*
X15741647Y-14804536D01*
X15722599Y-14795012D01*
X15713075Y-14775965D01*
X15713075Y-14699774D01*
X15722599Y-14680727D01*
X15741647Y-14671203D01*
X15779742Y-14671203D01*
X15798789Y-14680727D01*
X15808313Y-14699774D01*
X15808313Y-14718822D01*
X15713075Y-14737869D01*
X15884504Y-14795012D02*
X15903551Y-14804536D01*
X15941647Y-14804536D01*
X15960694Y-14795012D01*
X15970218Y-14775965D01*
X15970218Y-14766441D01*
X15960694Y-14747393D01*
X15941647Y-14737869D01*
X15913075Y-14737869D01*
X15894028Y-14728346D01*
X15884504Y-14709298D01*
X15884504Y-14699774D01*
X15894028Y-14680727D01*
X15913075Y-14671203D01*
X15941647Y-14671203D01*
X15960694Y-14680727D01*
X16036885Y-14880727D02*
X16046408Y-14871203D01*
X16065456Y-14842631D01*
X16074980Y-14823584D01*
X16084504Y-14795012D01*
X16094028Y-14747393D01*
X16094028Y-14709298D01*
X16084504Y-14661679D01*
X16074980Y-14633108D01*
X16065456Y-14614060D01*
X16046408Y-14585488D01*
X16036885Y-14575965D01*
X16398789Y-14880727D02*
X16389266Y-14871203D01*
X16370218Y-14842631D01*
X16360694Y-14823584D01*
X16351170Y-14795012D01*
X16341647Y-14747393D01*
X16341647Y-14709298D01*
X16351170Y-14661679D01*
X16360694Y-14633108D01*
X16370218Y-14614060D01*
X16389266Y-14585488D01*
X16398789Y-14575965D01*
X16474980Y-14671203D02*
X16474980Y-14804536D01*
X16474980Y-14690250D02*
X16484504Y-14680727D01*
X16503551Y-14671203D01*
X16532123Y-14671203D01*
X16551170Y-14680727D01*
X16560694Y-14699774D01*
X16560694Y-14804536D01*
X16684504Y-14804536D02*
X16665456Y-14795012D01*
X16655932Y-14785488D01*
X16646408Y-14766441D01*
X16646408Y-14709298D01*
X16655932Y-14690250D01*
X16665456Y-14680727D01*
X16684504Y-14671203D01*
X16713075Y-14671203D01*
X16732123Y-14680727D01*
X16741647Y-14690250D01*
X16751170Y-14709298D01*
X16751170Y-14766441D01*
X16741647Y-14785488D01*
X16732123Y-14795012D01*
X16713075Y-14804536D01*
X16684504Y-14804536D01*
X16808313Y-14671203D02*
X16884504Y-14671203D01*
X16836885Y-14604536D02*
X16836885Y-14775965D01*
X16846409Y-14795012D01*
X16865456Y-14804536D01*
X16884504Y-14804536D01*
X17103551Y-14671203D02*
X17103551Y-14871203D01*
X17103551Y-14680727D02*
X17122599Y-14671203D01*
X17160694Y-14671203D01*
X17179742Y-14680727D01*
X17189266Y-14690250D01*
X17198790Y-14709298D01*
X17198790Y-14766441D01*
X17189266Y-14785488D01*
X17179742Y-14795012D01*
X17160694Y-14804536D01*
X17122599Y-14804536D01*
X17103551Y-14795012D01*
X17313075Y-14804536D02*
X17294028Y-14795012D01*
X17284504Y-14775965D01*
X17284504Y-14604536D01*
X17474980Y-14804536D02*
X17474980Y-14699774D01*
X17465456Y-14680727D01*
X17446409Y-14671203D01*
X17408313Y-14671203D01*
X17389266Y-14680727D01*
X17474980Y-14795012D02*
X17455932Y-14804536D01*
X17408313Y-14804536D01*
X17389266Y-14795012D01*
X17379742Y-14775965D01*
X17379742Y-14756917D01*
X17389266Y-14737869D01*
X17408313Y-14728346D01*
X17455932Y-14728346D01*
X17474980Y-14718822D01*
X17541647Y-14671203D02*
X17617837Y-14671203D01*
X17570218Y-14604536D02*
X17570218Y-14775965D01*
X17579742Y-14795012D01*
X17598790Y-14804536D01*
X17617837Y-14804536D01*
X17760694Y-14795012D02*
X17741647Y-14804536D01*
X17703551Y-14804536D01*
X17684504Y-14795012D01*
X17674980Y-14775965D01*
X17674980Y-14699774D01*
X17684504Y-14680727D01*
X17703551Y-14671203D01*
X17741647Y-14671203D01*
X17760694Y-14680727D01*
X17770218Y-14699774D01*
X17770218Y-14718822D01*
X17674980Y-14737869D01*
X17941647Y-14804536D02*
X17941647Y-14604536D01*
X17941647Y-14795012D02*
X17922599Y-14804536D01*
X17884504Y-14804536D01*
X17865456Y-14795012D01*
X17855932Y-14785488D01*
X17846409Y-14766441D01*
X17846409Y-14709298D01*
X17855932Y-14690250D01*
X17865456Y-14680727D01*
X17884504Y-14671203D01*
X17922599Y-14671203D01*
X17941647Y-14680727D01*
X18017837Y-14880727D02*
X18027361Y-14871203D01*
X18046409Y-14842631D01*
X18055932Y-14823584D01*
X18065456Y-14795012D01*
X18074980Y-14747393D01*
X18074980Y-14709298D01*
X18065456Y-14661679D01*
X18055932Y-14633108D01*
X18046409Y-14614060D01*
X18027361Y-14585488D01*
X18017837Y-14575965D01*
M02*
